HIERARCHY
ROOT Hips
{
	OFFSET 0.00000 0.00000 0.00000
	CHANNELS 6 Xposition Yposition Zposition Zrotation Yrotation Xrotation 
	JOINT LHipJoint
	{
		OFFSET 0 0 0
		CHANNELS 3 Zrotation Yrotation Xrotation
		JOINT LeftUpLeg
		{
			OFFSET 1.77779 -1.88989 0.48267
			CHANNELS 3 Zrotation Yrotation Xrotation
			JOINT LeftLeg
			{
				OFFSET 2.53442 -6.96327 0.00000
				CHANNELS 3 Zrotation Yrotation Xrotation
				JOINT LeftFoot
				{
					OFFSET 2.71068 -7.44755 0.00000
					CHANNELS 3 Zrotation Yrotation Xrotation
					JOINT LeftToeBase
					{
						OFFSET 0.17992 -0.49431 2.22524
						CHANNELS 3 Zrotation Yrotation Xrotation
						End Site
						{
							OFFSET 0.00000 -0.00000 1.14687
						}
					}
				}
			}
		}
	}
	JOINT RHipJoint
	{
		OFFSET 0 0 0
		CHANNELS 3 Zrotation Yrotation Xrotation
		JOINT RightUpLeg
		{
			OFFSET -1.58469 -1.88989 0.48267
			CHANNELS 3 Zrotation Yrotation Xrotation
			JOINT RightLeg
			{
				OFFSET -2.60386 -7.15404 0.00000
				CHANNELS 3 Zrotation Yrotation Xrotation
				JOINT RightFoot
				{
					OFFSET -2.73334 -7.50979 0.00000
					CHANNELS 3 Zrotation Yrotation Xrotation
					JOINT RightToeBase
					{
						OFFSET -0.25618 -0.70384 2.21822
						CHANNELS 3 Zrotation Yrotation Xrotation
						End Site
						{
							OFFSET -0.00000 -0.00000 1.16381
						}
					}
				}
			}
		}
	}
	JOINT LowerBack
	{
		OFFSET 0 0 0
		CHANNELS 3 Zrotation Yrotation Xrotation
		JOINT Spine
		{
			OFFSET 0.03410 2.01612 -0.22230
			CHANNELS 3 Zrotation Yrotation Xrotation
			JOINT Spine1
			{
				OFFSET 0.03465 2.03012 0.00937
				CHANNELS 3 Zrotation Yrotation Xrotation
				JOINT Neck
				{
					OFFSET 0 0 0
					CHANNELS 3 Zrotation Yrotation Xrotation
					JOINT Neck1
					{
						OFFSET -0.00219 1.70459 0.20857
						CHANNELS 3 Zrotation Yrotation Xrotation
						JOINT Head
						{
							OFFSET 0.02518 1.72339 -0.22179
							CHANNELS 3 Zrotation Yrotation Xrotation
							End Site
							{
								OFFSET 0.00282 1.74122 -0.09823
							}
						}
					}
				}
				JOINT LeftShoulder
				{
					OFFSET 0 0 0
					CHANNELS 3 Zrotation Yrotation Xrotation
					JOINT LeftArm
					{
						OFFSET 3.36358 1.00547 -0.37661
						CHANNELS 3 Zrotation Yrotation Xrotation
						JOINT LeftForeArm
						{
							OFFSET 5.06507 -0.00000 0.00000
							CHANNELS 3 Zrotation Yrotation Xrotation
							JOINT LeftHand
							{
								OFFSET 3.60196 -0.00000 0.00000
								CHANNELS 3 Zrotation Yrotation Xrotation
								JOINT LeftFingerBase
								{
									OFFSET 0 0 0
									CHANNELS 3 Zrotation Yrotation Xrotation
									JOINT LeftHandIndex1
									{
										OFFSET 0.45035 -0.00000 0.00000
										CHANNELS 3 Zrotation Yrotation Xrotation
										End Site
										{
											OFFSET 0.36308 -0.00000 0.00000
										}
									}
								}
								JOINT LThumb
								{
									OFFSET 0 0 0
									CHANNELS 3 Zrotation Yrotation Xrotation
									End Site
									{
										OFFSET 0.36862 -0.00000 0.36862
									}
								}
							}
						}
					}
				}
				JOINT RightShoulder
				{
					OFFSET 0 0 0
					CHANNELS 3 Zrotation Yrotation Xrotation
					JOINT RightArm
					{
						OFFSET -3.50159 0.80383 -0.71526
						CHANNELS 3 Zrotation Yrotation Xrotation
						JOINT RightForeArm
						{
							OFFSET -5.36394 -0.00000 0.00000
							CHANNELS 3 Zrotation Yrotation Xrotation
							JOINT RightHand
							{
								OFFSET -3.58035 -0.00000 0.00000
								CHANNELS 3 Zrotation Yrotation Xrotation
								JOINT RightFingerBase
								{
									OFFSET 0 0 0
									CHANNELS 3 Zrotation Yrotation Xrotation
									JOINT RightHandIndex1
									{
										OFFSET -0.66375 -0.00000 0.00000
										CHANNELS 3 Zrotation Yrotation Xrotation
										End Site
										{
											OFFSET -0.53513 -0.00000 0.00000
										}
									}
								}
								JOINT RThumb
								{
									OFFSET 0 0 0
									CHANNELS 3 Zrotation Yrotation Xrotation
									End Site
									{
										OFFSET -0.54330 -0.00000 0.54330
									}
								}
							}
						}
					}
				}
			}
		}
	}
}
MOTION
Frames: 8
Frame Time: .0083333
0.3359 17.8174 10.7198 -6.5873 -7.4566 -1.6994 0.0000 0.0000 0.0000 -10.6262 -12.4089 -18.8935 0.5929 4.9299 13.7086 -0.0041 1.4809 -1.5515 0.0258 -1.0371 -2.8508 0.0000 0.0000 0.0000 31.8737 2.2782 13.6534 -2.8259 -10.4077 30.3073 -0.5410 3.3074 -13.1580 -0.1607 2.5826 -7.1187 6.4942 2.5100 8.1421 1.7832 4.0134 0.3389 -2.2282 1.8848 -3.8970 -1.4017 -3.2808 -15.2954 1.1492 -4.4728 20.3401 0.0800 -2.0825 8.9559 0.0000 0.0000 0.0000 -88.7639 6.2663 16.6986 9.0757 -15.2810 -1.2200 -0.0000 -0.0000 3.0605 26.5572 23.0198 11.0595 -7.1250 0.0000 -0.0000 -2.7241 55.3669 -0.6936 0.0000 0.0000 0.0000 87.9346 6.9430 13.9689 -14.7516 23.7989 -3.1250 0.0000 0.0000 2.1335 -20.9738 21.7331 -8.0789 7.1250 -0.0000 -0.0000 4.9086 -6.9327 4.2964
0.3579 17.8354 10.9439 -6.0152 -6.9639 -1.5685 0.0000 0.0000 0.0000 -11.6788 -12.2570 -18.9310 0.6384 5.1120 14.2283 -0.0006 0.4332 -0.2527 0.0163 -0.8232 -2.2626 0.0000 0.0000 0.0000 30.9218 1.7071 13.0508 -3.0452 -10.7678 31.5008 -0.3962 3.3877 -11.2104 -0.1799 2.7318 -7.5330 6.0018 2.3877 7.7906 1.6339 3.7873 0.0629 -2.0772 1.7725 -4.0277 -1.5559 -3.2985 -15.5069 1.1374 -4.4720 21.1364 0.0907 -2.0881 9.2737 0.0000 -0.0000 0.0000 -88.8191 6.8607 16.5989 9.1847 -15.4544 -1.2489 -0.0000 -0.0000 2.8140 26.7312 24.1388 11.6378 -7.1250 0.0000 -0.0000 -2.8918 56.6020 -0.8229 0.0000 -0.0000 0.0000 87.9780 6.4737 13.4294 -14.4967 23.4403 -3.0229 0.0000 0.0000 2.7752 -20.8472 21.9522 -8.1021 7.1250 -0.0000 -0.0000 5.0072 -6.7241 4.4037
0.3761 17.8675 11.1741 -4.8028 -6.4815 -1.7593 0.0000 0.0000 0.0000 -13.4645 -12.1355 -18.4807 0.6840 5.2879 14.7316 0.0007 0.1198 0.4674 0.0201 -0.9150 -2.5148 0.0000 0.0000 0.0000 29.3048 1.1356 12.6330 -3.3137 -11.1864 32.9112 -0.2418 3.2216 -8.7374 -0.1759 2.7015 -7.4488 4.7845 2.2536 7.4906 1.3286 3.4731 -0.0307 -1.6742 1.6378 -4.0314 -1.5670 -3.1811 -15.9655 1.1535 -4.3249 22.0672 0.1012 -2.0086 9.6839 0.0000 0.0000 0.0000 -88.8694 7.5095 16.7970 9.3795 -15.7632 -1.3013 -0.0000 -0.0000 1.5674 27.9193 23.5571 11.9576 -7.1250 0.0000 -0.0000 -1.4106 56.2372 -0.3888 0.0000 0.0000 0.0000 88.0925 6.0160 12.9463 -14.3028 23.1660 -2.9462 0.0000 0.0000 3.3564 -20.5810 22.0507 -8.0242 7.1250 -0.0000 -0.0000 5.1834 -6.6631 4.5661
0.3864 17.8941 11.4005 -3.8971 -6.0190 -2.0145 0.0000 0.0000 0.0000 -14.8706 -11.7699 -17.8851 0.7213 5.4270 15.1307 0.0027 -0.0279 0.9969 0.0126 -0.7244 -1.9908 0.0000 0.0000 0.0000 28.0520 0.5649 12.1464 -3.6142 -11.6286 34.4303 -0.1212 2.9961 -6.2203 -0.1438 2.4437 -6.7335 3.7677 2.1302 7.4575 1.1302 3.2174 -0.2014 -1.2908 1.5238 -4.2490 -1.5800 -3.1358 -15.9486 1.1554 -4.2730 22.6284 0.1067 -1.9818 9.8794 0.0000 -0.0000 0.0000 -88.8807 7.9818 16.7693 9.3667 -15.7429 -1.2978 -0.0000 -0.0000 0.8438 28.3484 21.5013 11.1860 -7.1250 0.0000 -0.0000 -0.4042 54.0934 -0.0903 0.0000 -0.0000 0.0000 88.2021 5.4027 12.4929 -14.0879 22.8602 -2.8622 0.0000 0.0000 3.8349 -20.3217 21.5613 -7.7503 7.1250 -0.0000 -0.0000 5.3068 -7.2119 4.6189
0.3934 17.9154 11.6180 -3.3190 -5.5878 -2.4205 0.0000 0.0000 0.0000 -15.9187 -11.1969 -17.1326 0.7518 5.5380 15.4495 0.0057 -0.3006 1.5719 0.0180 -0.8656 -2.3790 0.0000 0.0000 0.0000 27.2554 0.1251 11.7556 -3.9434 -12.0847 36.0321 -0.0515 2.6463 -4.1662 -0.0441 1.3557 -3.7281 3.0449 2.0193 7.6240 1.0431 3.0122 -0.2793 -0.9655 1.4327 -4.4650 -1.5404 -3.2100 -15.6532 0.9829 -4.3531 22.7998 0.0331 -2.0369 9.8804 -0.0000 -0.0000 0.0000 -88.9273 8.0655 16.1604 9.1832 -15.4520 -1.2485 -0.0000 -0.0000 0.9173 27.9315 20.7102 10.6192 -7.1250 0.0000 -0.0000 -0.6597 53.1456 -0.1322 -0.0000 -0.0000 0.0000 88.3654 5.1912 11.3009 -13.6539 22.2378 -2.6957 0.0000 0.0000 4.8966 -20.1265 21.2856 -7.5779 7.1250 -0.0000 -0.0000 5.4088 -7.5277 4.6751
0.4010 17.9328 11.8299 -2.9411 -5.1226 -2.7378 0.0000 0.0000 0.0000 -16.7023 -10.6262 -16.5143 0.7816 5.6442 15.7554 0.0106 -0.5982 2.2590 0.0453 -1.3735 -3.7771 0.0000 0.0000 0.0000 26.7135 -0.2174 11.1781 -4.3095 -12.5612 37.7475 -0.0027 2.1279 -1.6901 -0.0215 0.9475 -2.6044 2.6366 1.9286 7.6794 0.9252 2.8506 -0.2508 -0.8436 1.3608 -4.4856 -1.5567 -3.2719 -15.7534 1.0474 -4.4568 23.0450 0.0406 -2.0762 9.9905 -0.0000 -0.0000 0.0000 -88.8428 7.8866 15.5555 8.9897 -15.1440 -1.1974 -0.0000 -0.0000 1.2076 28.1132 20.6765 10.6826 -7.1250 0.0000 -0.0000 -0.4624 53.1444 -0.0926 -0.0000 -0.0000 0.0000 88.6215 5.1516 9.9578 -13.2956 21.7188 -2.5616 0.0000 0.0000 5.9734 -19.9871 21.4255 -7.5681 7.1250 -0.0000 -0.0000 5.5081 -7.4030 4.7752
0.4122 17.9431 12.0414 -2.8131 -4.8058 -2.9265 0.0000 0.0000 0.0000 -17.0815 -10.1518 -16.0292 0.8102 5.7441 16.0437 0.0134 -0.8254 2.6574 0.0495 -1.4359 -3.9490 0.0000 0.0000 0.0000 26.4023 -0.3648 10.4163 -4.7082 -13.0475 39.5466 0.0055 1.5328 1.3857 -0.0315 1.1462 -3.1513 2.4956 1.8699 7.6276 0.8961 2.7533 -0.1223 -0.7794 1.3188 -4.3306 -1.6922 -3.2583 -16.2904 1.1966 -4.4365 23.2766 0.1067 -2.0548 10.1829 0.0000 0.0000 0.0000 -88.7967 7.3940 14.7734 8.7490 -14.7596 -1.1353 -0.0000 -0.0000 2.1320 28.0932 21.3013 10.9743 -7.1250 0.0000 -0.0000 -0.6268 53.8233 -0.1360 0.0000 0.0000 0.0000 88.7869 5.0458 9.1641 -13.2005 21.5803 -2.5266 0.0000 0.0000 6.5568 -19.6171 21.2842 -7.3719 7.1250 -0.0000 -0.0000 5.7322 -7.6039 4.9488
0.4241 17.9628 12.2472 -2.5037 -4.6741 -2.9843 0.0000 0.0000 0.0000 -17.5978 -9.6009 -15.7214 0.8394 5.8441 16.3329 0.0078 -1.2098 2.5439 0.0507 -1.4537 -3.9981 0.0000 0.0000 0.0000 25.9039 -0.1383 9.4356 -5.1564 -13.5578 41.4942 -0.0503 0.7858 4.6030 -0.0075 0.5590 -1.5360 2.1784 1.8783 7.6094 0.8076 2.7319 -0.1241 -0.6907 1.3142 -4.3330 -1.8792 -3.3083 -16.5479 1.4349 -4.5161 23.3879 0.2054 -2.0763 10.2848 0.0000 -0.0000 0.0000 -88.6919 7.0299 14.1864 8.4608 -14.2970 -1.0630 -0.0000 -0.0000 2.1845 27.8440 20.1664 10.3207 -7.1250 0.0000 -0.0000 -0.6301 52.5342 -0.1168 0.0000 -0.0000 0.0000 89.0819 4.7419 7.9616 -13.0935 21.4241 -2.4873 0.0000 0.0000 7.4136 -19.2243 21.3964 -7.2500 7.1250 -0.0000 -0.0000 5.9897 -7.5448 5.1805
